<svg version="1.1" id="Layer_1" xmlns="http://www.w3.org/2000/svg" xmlns:xlink="http://www.w3.org/1999/xlink" x="0px" y="0px"
	 width="100%" viewBox="0 0 122 117" enable-background="new 0 0 122 117" xml:space="preserve">
<path fill="#272727" opacity="1.000000" stroke="none" 
	d="
M74.000000,118.000000 
	C49.333332,118.000000 25.166666,118.000000 1.000000,118.000000 
	C1.000000,79.000000 1.000000,40.000000 1.000000,1.000000 
	C41.666668,1.000000 82.333336,1.000000 123.000000,1.000000 
	C123.000000,40.000000 123.000000,79.000000 123.000000,118.000000 
	C106.833336,118.000000 90.666664,118.000000 74.000000,118.000000 
M64.944977,26.510939 
	C64.944977,26.510939 64.870232,26.023840 65.022209,25.356560 
	C64.974945,24.905478 64.927681,24.454393 64.981918,23.298193 
	C64.667412,22.498272 64.352905,21.698351 63.703053,20.219543 
	C62.169872,19.479174 60.643623,18.114868 59.102409,18.097746 
	C47.413696,17.967875 35.722050,18.101849 23.352440,18.074005 
	C22.897398,18.105913 22.442358,18.137823 21.318626,18.073397 
	C20.518538,18.353260 19.718451,18.633123 18.242088,19.464699 
	C18.126577,36.715710 18.011066,53.966717 17.511463,71.839294 
	C16.617704,78.202087 17.228785,78.829430 23.422031,79.033699 
	C28.339720,79.195885 33.247265,79.665619 37.783066,80.692772 
	C36.067642,87.226021 37.286354,88.941895 43.694801,89.004349 
	C49.464371,89.060585 55.233990,89.111137 61.035995,89.573959 
	C61.035995,89.573959 61.143944,89.970711 61.019276,90.651123 
	C61.059830,91.108650 61.100388,91.566177 61.070194,92.507416 
	C61.070194,92.507416 61.161583,92.987656 60.776020,93.707077 
	C59.140076,99.986420 59.719940,101.740013 63.768337,101.764633 
	C77.223488,101.846481 90.680588,101.857635 104.133400,101.657928 
	C105.376968,101.639473 106.595428,99.930023 107.980171,98.271912 
	C107.935524,97.526451 107.890884,96.780998 107.935822,95.522163 
	C107.901512,95.351875 107.867195,95.181587 107.937302,94.323608 
	C107.905762,93.862144 107.874222,93.400688 107.968613,92.037262 
	C107.923561,88.690598 107.878517,85.343941 107.967216,81.116539 
	C107.922630,78.743141 107.878052,76.369751 107.968895,73.116188 
	C107.924026,70.743355 107.879150,68.370522 107.970192,65.171234 
	C107.924767,63.779499 107.879341,62.387760 107.968925,60.175766 
	C107.591461,57.449219 107.213989,54.722672 106.974930,51.111042 
	C106.984520,50.126400 107.003029,49.141747 107.002274,48.157112 
	C106.996979,41.294971 106.698296,41.021027 99.691010,40.991760 
	C95.098373,40.972576 90.505966,40.894993 85.703979,40.448551 
	C85.505646,40.219475 85.271782,40.035587 84.986465,39.441944 
	C84.986465,39.441944 84.853760,39.006489 84.964775,38.128452 
	C84.657768,35.385162 84.350769,32.641872 83.647949,29.199238 
	C82.123642,28.799091 80.609154,28.105158 79.073189,28.053820 
	C74.443123,27.899063 69.804695,27.994246 65.006271,27.489725 
	C64.948509,27.323433 64.890755,27.157139 64.944977,26.510939 
z"/>
<path fill="#A3E056" opacity="1.000000" stroke="none" 
	d="
M24.031319,18.153555 
	C35.722050,18.101849 47.413696,17.967875 59.102409,18.097746 
	C60.643623,18.114868 62.169872,19.479174 63.807526,20.880363 
	C63.610794,22.358553 63.309593,23.175920 62.645428,24.191183 
	C60.490746,24.592482 58.699829,24.963303 56.907181,24.971874 
	C45.993221,25.024061 35.078869,24.993841 24.116856,24.564121 
	C24.056480,22.142603 24.043900,20.148079 24.031319,18.153555 
z"/>
<path fill="#3768C4" opacity="1.000000" stroke="none" 
	d="
M107.842682,92.939224 
	C107.874222,93.400688 107.905762,93.862144 107.427505,94.666473 
	C95.513039,95.006248 84.108032,94.957336 72.703972,95.039055 
	C70.444847,95.055244 68.189316,95.573112 65.550079,95.917488 
	C64.116699,96.564262 63.065372,97.153183 62.014046,97.742104 
	C62.155685,98.175064 62.297321,98.608032 62.438957,99.041000 
	C68.292023,99.041000 74.145081,99.041000 80.457932,99.126297 
	C85.611443,99.154449 90.305176,99.097313 95.453903,99.127121 
	C99.881119,99.144630 103.853333,99.075195 107.825546,99.005753 
	C106.595428,99.930023 105.376968,101.639473 104.133400,101.657928 
	C90.680588,101.857635 77.223488,101.846481 63.768337,101.764633 
	C59.719940,101.740013 59.140076,99.986420 61.173576,93.346420 
	C61.571133,92.985764 61.980640,92.979141 62.316792,92.986099 
	C63.101276,92.992615 63.549606,92.992172 64.375763,92.994461 
	C65.510323,92.993042 66.267067,92.988884 67.452179,92.986160 
	C69.593338,92.965790 71.306129,92.943977 73.392044,92.925888 
	C74.878265,91.921989 75.991371,90.914383 77.490906,89.939346 
	C78.912117,89.947220 79.946884,89.922523 81.310791,90.064232 
	C85.246048,91.149467 88.809921,92.549622 92.468521,92.870750 
	C97.556053,93.317291 102.714554,92.955185 107.842682,92.939224 
z"/>
<path fill="#3CB1F1" opacity="1.000000" stroke="none" 
	d="
M107.905647,92.488243 
	C102.714554,92.955185 97.556053,93.317291 92.468521,92.870750 
	C88.809921,92.549622 85.246048,91.149467 81.468468,89.767441 
	C82.713669,88.605095 85.872269,89.390305 84.087097,85.786781 
	C84.053932,85.582497 83.995399,85.173409 84.258606,84.977104 
	C84.707642,83.943161 84.893471,83.105515 85.540283,82.215668 
	C93.278656,82.108063 100.556061,82.052666 107.833466,81.997276 
	C107.878517,85.343941 107.923561,88.690598 107.905647,92.488243 
z"/>
<path fill="#9DDF5D" opacity="1.000000" stroke="none" 
	d="
M24.164650,24.991117 
	C35.078869,24.993841 45.993221,25.024061 56.907181,24.971874 
	C58.699829,24.963303 60.490746,24.592482 62.957268,24.201557 
	C64.048187,24.010460 64.464310,24.006886 64.880424,24.003311 
	C64.927681,24.454393 64.974945,24.905478 64.783562,25.836456 
	C64.335655,26.521379 64.154694,26.748913 63.998867,27.399441 
	C63.987358,28.868023 63.979023,29.936121 63.505013,31.003262 
	C50.081882,30.998135 37.124432,30.993967 24.120533,30.562983 
	C24.104277,28.421148 24.134464,26.706133 24.164650,24.991117 
z"/>
<path fill="#A91F5B" opacity="1.000000" stroke="none" 
	d="
M84.120262,85.991066 
	C85.872269,89.390305 82.713669,88.605095 81.139343,89.601028 
	C79.946884,89.922523 78.912117,89.947220 77.260056,89.624382 
	C75.098946,89.239952 73.555122,89.203064 71.600616,89.099716 
	C69.806953,89.077904 68.423973,89.122543 66.660728,89.109436 
	C65.514587,89.092728 64.748711,89.133789 63.649651,89.114296 
	C62.868244,89.090027 62.420025,89.126312 61.729683,89.121933 
	C61.487560,89.081253 61.003590,89.164200 61.003590,89.164200 
	C55.233990,89.111137 49.464371,89.060585 43.694801,89.004349 
	C37.286354,88.941895 36.067642,87.226021 38.326759,80.342499 
	C39.579609,79.938454 40.288769,79.884674 41.414307,79.886993 
	C49.188591,79.598427 56.546494,79.253761 64.125679,79.121475 
	C64.899261,79.591652 65.451553,79.849442 66.002106,80.452003 
	C65.997437,81.258179 65.994499,81.719582 65.578247,82.297455 
	C62.903988,82.445358 60.643047,82.476791 57.907578,82.361855 
	C52.601383,82.431564 47.769718,82.647652 42.594067,82.930359 
	C41.321823,83.512772 40.393566,84.028572 39.465313,84.544365 
	C39.520386,85.058647 39.575459,85.572929 39.630531,86.087212 
	C45.752552,86.087212 51.874569,86.087212 58.455460,86.186890 
	C64.277908,86.307327 69.641479,86.328094 75.349174,86.527695 
	C78.502281,86.468048 81.311272,86.229561 84.120262,85.991066 
z"/>
<path fill="#42B8F2" opacity="1.000000" stroke="none" 
	d="
M107.900345,81.556908 
	C100.556061,82.052666 93.278656,82.108063 85.487000,82.218063 
	C84.972748,82.272659 84.872787,82.235458 84.922409,81.857903 
	C84.926811,80.979958 84.881584,80.479568 84.905571,79.547256 
	C85.037704,77.077621 85.100632,75.039894 85.621841,73.001801 
	C93.331238,73.333076 100.582359,73.664711 107.833473,73.996353 
	C107.878052,76.369751 107.922630,78.743141 107.900345,81.556908 
z"/>
<path fill="#46BDF2" opacity="1.000000" stroke="none" 
	d="
M107.901184,73.556274 
	C100.582359,73.664711 93.331238,73.333076 85.551331,72.606087 
	C84.956680,71.143379 84.890831,70.076019 84.896194,68.611458 
	C85.034126,67.142860 85.100838,66.071457 85.625488,65.000053 
	C93.333710,65.332588 100.584000,65.665138 107.834274,65.997688 
	C107.879150,68.370522 107.924026,70.743355 107.901184,73.556274 
z"/>
<path fill="#4BC3F2" opacity="1.000000" stroke="none" 
	d="
M107.902237,65.584457 
	C100.584000,65.665138 93.333710,65.332588 85.556168,64.587357 
	C84.963654,62.783772 84.898392,61.392887 84.903427,59.629940 
	C85.038132,58.505192 85.102554,57.752502 85.624512,56.999882 
	C93.446831,57.710548 101.505806,54.642448 107.833908,60.996025 
	C107.879341,62.387760 107.924767,63.779499 107.902237,65.584457 
z"/>
<path fill="#54CEF3" opacity="1.000000" stroke="none" 
	d="
M85.913467,40.843567 
	C90.505966,40.894993 95.098373,40.972576 99.691010,40.991760 
	C106.698296,41.021027 106.996979,41.294971 107.002274,48.157112 
	C107.003029,49.141747 106.984520,50.126400 106.566406,51.446186 
	C102.725586,50.854275 99.340515,49.601086 95.847221,49.095081 
	C92.581291,48.622013 89.200546,48.941544 85.758987,48.477486 
	C85.736244,45.643017 85.824852,43.243290 85.913467,40.843567 
z"/>
<path fill="#4FC8F3" opacity="1.000000" stroke="none" 
	d="
M85.870338,48.912231 
	C89.200546,48.941544 92.581291,48.622013 95.847221,49.095081 
	C99.340515,49.601086 102.725586,50.854275 106.497208,51.888725 
	C107.213989,54.722672 107.591461,57.449219 107.901413,60.585896 
	C101.505806,54.642448 93.446831,57.710548 85.555878,56.636559 
	C85.065033,55.536697 85.100349,54.800220 85.395355,53.764908 
	C85.615639,51.890289 85.576233,50.314507 85.663216,48.699432 
	C85.789604,48.660133 85.870338,48.912231 85.870338,48.912231 
z"/>
<path fill="#E13071" opacity="1.000000" stroke="none" 
	d="
M65.169533,27.991968 
	C69.804695,27.994246 74.443123,27.899063 79.073189,28.053820 
	C80.609154,28.105158 82.123642,28.799091 83.834961,29.984648 
	C84.002914,32.514652 83.983864,34.259247 83.498703,36.003132 
	C76.744247,36.019501 70.455894,36.036583 64.105713,35.661049 
	C64.049164,34.208080 64.054436,33.147720 64.364182,31.875450 
	C64.835617,30.439678 65.002579,29.215824 65.169533,27.991968 
z"/>
<path fill="#E1316B" opacity="1.000000" stroke="none" 
	d="
M64.167549,36.053661 
	C70.455894,36.036583 76.744247,36.019501 83.530312,36.319004 
	C84.303276,37.425888 84.578514,38.216187 84.853760,39.006489 
	C84.853760,39.006489 84.986465,39.441944 84.810432,39.977592 
	C84.412613,41.677353 84.190826,42.841473 83.554367,43.961555 
	C77.148376,43.611012 71.157051,43.304501 65.082428,42.751358 
	C64.943985,42.340168 64.888840,42.175610 64.896240,41.615456 
	C64.583412,39.461864 64.208054,37.703873 63.916214,35.973434 
	C63.999729,36.000988 64.167549,36.053661 64.167549,36.053661 
z"/>
<path fill="#459D58" opacity="1.000000" stroke="none" 
	d="
M24.116856,24.564121 
	C24.134464,26.706133 24.104277,28.421148 24.071344,30.978220 
	C24.100540,33.211044 24.132481,34.601810 24.116745,36.407856 
	C24.100220,38.213795 24.131371,39.604450 24.117298,41.393822 
	C24.102552,42.860332 24.133030,43.928131 24.121159,45.370056 
	C24.106918,46.495232 24.135027,47.246281 24.120560,48.396126 
	C24.105474,49.862526 24.132967,50.930130 24.117199,52.424698 
	C24.102821,54.566803 24.131704,56.281944 24.117668,58.424252 
	C24.102991,60.567276 24.131233,62.283131 24.116295,64.417793 
	C24.070017,66.517265 24.066919,68.197945 23.868790,70.039551 
	C23.444176,70.446068 23.214596,70.691643 22.639284,70.939667 
	C21.833351,70.911301 21.373148,70.880493 20.924261,70.405197 
	C20.944998,66.974030 20.954420,63.987358 21.167728,60.640625 
	C21.577921,58.323090 21.953999,56.366371 21.962786,54.408005 
	C22.016985,42.328785 21.988388,30.249197 21.987316,18.169731 
	C22.442358,18.137823 22.897398,18.105913 23.691879,18.113781 
	C24.043900,20.148079 24.056480,22.142603 24.116856,24.564121 
z"/>
<path fill="#5BAD42" opacity="1.000000" stroke="none" 
	d="
M20.963842,61.000683 
	C20.954420,63.987358 20.944998,66.974030 20.546867,70.445023 
	C19.403957,71.025467 18.649755,71.121597 17.895554,71.217728 
	C18.011066,53.966717 18.126577,36.715710 18.790249,19.553356 
	C19.558420,31.007261 19.731558,42.373764 20.035868,53.736755 
	C20.100887,56.164608 20.642038,58.579708 20.963842,61.000683 
z"/>
<path fill="#4FA54E" opacity="1.000000" stroke="none" 
	d="
M21.167728,60.640625 
	C20.642038,58.579708 20.100887,56.164608 20.035868,53.736755 
	C19.731558,42.373764 19.558420,31.007261 19.128387,19.277500 
	C19.718451,18.633123 20.518538,18.353260 21.652971,18.121563 
	C21.988388,30.249197 22.016985,42.328785 21.962786,54.408005 
	C21.953999,56.366371 21.577921,58.323090 21.167728,60.640625 
z"/>
<path fill="#2E7571" opacity="1.000000" stroke="none" 
	d="
M17.703508,71.528511 
	C18.649755,71.121597 19.403957,71.025467 20.535553,70.889511 
	C21.373148,70.880493 21.833351,70.911301 22.688822,71.339615 
	C23.117388,72.003342 23.150682,72.269577 22.953918,72.715591 
	C22.150055,72.998718 21.576250,73.102066 20.746056,73.184387 
	C20.279058,73.424156 20.068451,73.684952 19.561657,74.171204 
	C20.457546,75.262756 21.592466,76.758766 22.852751,76.873116 
	C26.207537,77.177513 29.616322,76.886780 33.444038,76.896759 
	C36.256500,77.029114 38.628555,77.097382 41.000359,77.498810 
	C40.999374,78.498283 40.998650,79.164589 40.997925,79.830894 
	C40.288769,79.884674 39.579609,79.938454 38.514885,79.995522 
	C33.247265,79.665619 28.339720,79.195885 23.422031,79.033699 
	C17.228785,78.829430 16.617704,78.202087 17.703508,71.528511 
z"/>
<path fill="#8489C6" opacity="1.000000" stroke="none" 
	d="
M65.932129,95.859634 
	C68.189316,95.573112 70.444847,95.055244 72.703972,95.039055 
	C84.108032,94.957336 95.513039,95.006248 107.375298,95.010315 
	C107.867195,95.181587 107.901512,95.351875 107.438202,95.766510 
	C102.963348,96.061951 98.986115,96.113045 94.552551,96.113083 
	C89.400986,96.428879 84.705750,96.795731 79.550446,97.112297 
	C74.704285,96.661224 70.318207,96.260429 65.932129,95.859634 
z"/>
<path fill="#DAC9EC" opacity="1.000000" stroke="none" 
	d="
M95.008881,96.164139 
	C98.986115,96.113045 102.963348,96.061951 107.393402,96.023193 
	C107.890884,96.780998 107.935524,97.526451 107.902863,98.638840 
	C103.853333,99.075195 99.881119,99.144630 95.454544,98.767426 
	C95.003082,97.601913 95.005981,96.883026 95.008881,96.164139 
z"/>
<path fill="#E84175" opacity="1.000000" stroke="none" 
	d="
M83.969040,44.005589 
	C84.190826,42.841473 84.412613,41.677353 84.818390,40.205063 
	C85.271782,40.035587 85.505646,40.219475 85.808723,40.646057 
	C85.824852,43.243290 85.736244,45.643017 85.758987,48.477486 
	C85.870338,48.912231 85.789604,48.660133 85.480637,48.715012 
	C85.171677,48.769890 84.835808,48.916553 84.671501,48.600777 
	C84.327805,46.858532 84.148422,45.432060 83.969040,44.005589 
z"/>
<path fill="#3980C0" opacity="1.000000" stroke="none" 
	d="
M61.971802,89.162605 
	C62.420025,89.126312 62.868244,89.090027 63.653515,89.495033 
	C63.993023,90.954796 63.995483,91.973259 63.997940,92.991730 
	C63.549606,92.992172 63.101276,92.992615 62.190147,92.815994 
	C61.547726,92.418755 61.352257,92.213676 61.140942,92.023705 
	C61.100388,91.566177 61.059830,91.108650 61.230145,90.187225 
	C61.633312,89.550972 61.810242,89.364067 61.971802,89.162605 
z"/>
<path fill="#EA457E" opacity="1.000000" stroke="none" 
	d="
M84.909271,38.567471 
	C84.578514,38.216187 84.303276,37.425888 83.996414,36.319714 
	C83.983864,34.259247 84.002914,32.514652 84.032867,30.334320 
	C84.350769,32.641872 84.657768,35.385162 84.909271,38.567471 
z"/>
<path fill="#AFED6A" opacity="1.000000" stroke="none" 
	d="
M65.087906,27.740847 
	C65.002579,29.215824 64.835617,30.439678 64.342728,31.604713 
	C64.001427,31.365335 63.986061,31.184778 63.970692,31.004221 
	C63.979023,29.936121 63.987358,28.868023 64.206589,27.397114 
	C64.417488,26.994307 64.832993,26.990847 64.832993,26.990847 
	C64.890755,27.157139 64.948509,27.323433 65.087906,27.740847 
z"/>
<path fill="#B8F371" opacity="1.000000" stroke="none" 
	d="
M64.931168,23.650753 
	C64.464310,24.006886 64.048187,24.010460 63.320232,24.003662 
	C63.309593,23.175920 63.610794,22.358553 63.975197,21.219807 
	C64.352905,21.698351 64.667412,22.498272 64.931168,23.650753 
z"/>
<path fill="#3E8EC7" opacity="1.000000" stroke="none" 
	d="
M61.729683,89.121933 
	C61.810242,89.364067 61.633312,89.550972 61.292480,89.847015 
	C61.143944,89.970711 61.035995,89.573959 61.019791,89.369080 
	C61.003590,89.164200 61.487560,89.081253 61.729683,89.121933 
z"/>
<path fill="#B8F371" opacity="1.000000" stroke="none" 
	d="
M64.888985,26.750893 
	C64.832993,26.990847 64.417488,26.994307 64.209763,26.996632 
	C64.154694,26.748913 64.335655,26.521379 64.707573,26.170097 
	C64.870232,26.023840 64.944977,26.510939 64.888985,26.750893 
z"/>
<path fill="#3E8EC7" opacity="1.000000" stroke="none" 
	d="
M61.105568,92.265564 
	C61.352257,92.213676 61.547726,92.418755 61.853996,92.809036 
	C61.980640,92.979141 61.571133,92.985764 61.366356,92.986710 
	C61.161583,92.987656 61.070194,92.507416 61.105568,92.265564 
z"/>
<path fill="#D8C4EC" opacity="1.000000" stroke="none" 
	d="
M94.552551,96.113083 
	C95.005981,96.883026 95.003082,97.601913 94.999542,98.680489 
	C90.305176,99.097313 85.611443,99.154449 80.459534,98.813110 
	C80.004410,97.997292 80.007462,97.579941 80.010513,97.162582 
	C84.705750,96.795731 89.400986,96.428879 94.552551,96.113083 
z"/>
<path fill="#D5BEEB" opacity="1.000000" stroke="none" 
	d="
M79.550438,97.112305 
	C80.007462,97.579941 80.004410,97.997292 79.999748,98.727821 
	C74.145081,99.041000 68.292023,99.041000 62.438957,99.041000 
	C62.297321,98.608032 62.155685,98.175064 62.014046,97.742104 
	C63.065372,97.153183 64.116699,96.564262 65.550079,95.917488 
	C70.318207,96.260429 74.704285,96.661224 79.550438,97.112305 
z"/>
<path fill="#3188DB" opacity="1.000000" stroke="none" 
	d="
M67.040993,89.167191 
	C68.423973,89.122543 69.806953,89.077904 71.673027,89.416878 
	C72.443718,90.841057 72.731323,91.881607 73.018929,92.922165 
	C71.306129,92.943977 69.593338,92.965790 67.446159,92.604774 
	C67.021515,91.203697 67.031250,90.185440 67.040993,89.167191 
z"/>
<path fill="#3393E2" opacity="1.000000" stroke="none" 
	d="
M73.392044,92.925888 
	C72.731323,91.881607 72.443718,90.841057 72.083710,89.483337 
	C73.555122,89.203064 75.098946,89.239952 76.873619,89.591812 
	C75.991371,90.914383 74.878265,91.921989 73.392044,92.925888 
z"/>
<path fill="#3573B9" opacity="1.000000" stroke="none" 
	d="
M66.660728,89.109436 
	C67.031250,90.185440 67.021515,91.203697 67.017792,92.603333 
	C66.267067,92.988884 65.510323,92.993042 64.375763,92.994461 
	C63.995483,91.973259 63.993023,90.954796 63.986698,89.555588 
	C64.748711,89.133789 65.514587,89.092728 66.660728,89.109436 
z"/>
<path fill="#CCB9DE" opacity="1.000000" stroke="none" 
	d="
M85.026031,82.270264 
	C84.893471,83.105515 84.707642,83.943161 83.815353,84.928406 
	C80.436478,85.065903 77.764053,85.055801 74.899963,84.834305 
	C74.459679,83.918190 74.211044,83.213463 74.420120,82.477745 
	C78.209488,82.376320 81.541138,82.305893 84.872787,82.235458 
	C84.872787,82.235458 84.972748,82.272659 85.026031,82.270264 
z"/>
<path fill="#BD6699" opacity="1.000000" stroke="none" 
	d="
M75.091629,85.045700 
	C77.764053,85.055801 80.436478,85.065903 83.552155,85.124710 
	C83.995399,85.173409 84.053932,85.582497 84.087097,85.786781 
	C81.311272,86.229561 78.502281,86.468048 75.348801,86.200424 
	C75.033424,85.478104 75.062523,85.261902 75.091629,85.045700 
z"/>
<path fill="#97DE64" opacity="1.000000" stroke="none" 
	d="
M63.505013,31.003262 
	C63.986061,31.184778 64.001427,31.365335 64.038254,31.816628 
	C64.054436,33.147720 64.049164,34.208080 64.105713,35.661049 
	C64.167549,36.053661 63.999729,36.000988 63.458488,35.984421 
	C49.999638,35.976093 37.082027,35.984333 24.164421,35.992577 
	C24.132481,34.601810 24.100540,33.211044 24.117786,31.405039 
	C37.124432,30.993967 50.081882,30.998135 63.505013,31.003262 
z"/>
<path fill="#E03351" opacity="1.000000" stroke="none" 
	d="
M84.824982,69.008659 
	C84.890831,70.076019 84.956680,71.143379 85.093048,72.606461 
	C85.100632,75.039894 85.037704,77.077621 84.447762,79.552200 
	C77.948448,80.028450 71.976143,80.067833 66.003845,80.107224 
	C65.451553,79.849442 64.899261,79.591652 64.239929,78.869751 
	C64.365768,77.935905 64.598633,77.466171 64.897446,76.624153 
	C64.920616,75.499702 64.877853,74.747536 64.884277,73.662674 
	C64.900208,72.883881 64.866936,72.437767 64.877617,71.741890 
	C64.892838,71.325516 64.864105,71.158905 64.904343,70.662842 
	C65.037895,69.890007 65.102486,69.446625 65.624924,69.002563 
	C72.330177,69.004143 78.577583,69.006401 84.824982,69.008659 
z"/>
<path fill="#D8C4EC" opacity="1.000000" stroke="none" 
	d="
M74.899963,84.834305 
	C75.062523,85.261902 75.033424,85.478104 75.004684,86.021584 
	C69.641479,86.328094 64.277908,86.307327 58.453308,85.830002 
	C57.988213,84.897614 57.984142,84.421791 58.060326,83.709229 
	C58.221088,83.151077 58.301594,82.829651 58.382103,82.508232 
	C60.643047,82.476791 62.903988,82.445358 66.009796,82.411537 
	C69.223907,82.442345 71.593163,82.475548 73.962410,82.508743 
	C74.211044,83.213463 74.459679,83.918190 74.899963,84.834305 
z"/>
<path fill="#2E7372" opacity="1.000000" stroke="none" 
	d="
M64.831505,76.996437 
	C64.598633,77.466171 64.365768,77.935905 64.018646,78.657364 
	C56.546494,79.253761 49.188591,79.598427 41.414307,79.886993 
	C40.998650,79.164589 40.999374,78.498283 41.441025,77.433563 
	C44.255707,76.967781 46.629467,76.900414 49.465477,76.897873 
	C54.895653,76.973938 59.863579,76.985191 64.831505,76.996437 
z"/>
<path fill="#D6BEEB" opacity="1.000000" stroke="none" 
	d="
M57.980068,83.945961 
	C57.984142,84.421791 57.988213,84.897614 57.994438,85.730331 
	C51.874569,86.087212 45.752552,86.087212 39.630531,86.087212 
	C39.575459,85.572929 39.520386,85.058647 39.465313,84.544365 
	C40.393566,84.028572 41.321823,83.512772 42.974457,83.118134 
	C48.459248,83.474838 53.219658,83.710396 57.980068,83.945961 
z"/>
<path fill="#A61E5A" opacity="1.000000" stroke="none" 
	d="
M74.420120,82.477745 
	C71.593163,82.475548 69.223907,82.442345 66.423111,82.295059 
	C65.994499,81.719582 65.997437,81.258179 66.002106,80.452003 
	C71.976143,80.067833 77.948448,80.028450 84.378555,79.984116 
	C84.881584,80.479568 84.926811,80.979958 84.922409,81.857903 
	C81.541138,82.305893 78.209488,82.376320 74.420120,82.477745 
z"/>
<path fill="#B273A2" opacity="1.000000" stroke="none" 
	d="
M58.060326,83.709229 
	C53.219658,83.710396 48.459248,83.474838 43.318443,83.051514 
	C47.769718,82.647652 52.601383,82.431564 57.907574,82.361855 
	C58.301594,82.829651 58.221088,83.151077 58.060326,83.709229 
z"/>
<path fill="#E03259" opacity="1.000000" stroke="none" 
	d="
M84.896194,68.611458 
	C78.577583,69.006401 72.330177,69.004143 65.560219,68.589218 
	C64.969604,66.785828 64.901558,65.395103 64.898239,63.590565 
	C65.030418,61.784016 65.097878,60.391289 65.622894,58.998898 
	C72.331352,59.333488 78.582245,59.667744 84.833138,60.001999 
	C84.898392,61.392887 84.963654,62.783772 85.098228,64.587357 
	C85.100838,66.071457 85.034126,67.142860 84.896194,68.611458 
z"/>
<path fill="#E0325F" opacity="1.000000" stroke="none" 
	d="
M84.903427,59.629936 
	C78.582245,59.667744 72.331352,59.333488 65.539009,58.751049 
	C64.942795,58.337238 64.888031,58.171608 64.897293,57.576736 
	C65.028404,55.414124 65.095482,53.680748 65.620209,51.957760 
	C72.328743,52.311275 78.579620,52.654404 84.905121,53.264565 
	C85.031715,53.708977 85.083687,53.886360 85.135666,54.063747 
	C85.100349,54.800220 85.065033,55.536697 85.098343,56.636490 
	C85.102554,57.752502 85.038132,58.505192 84.903427,59.629936 
z"/>
<path fill="#A685B1" opacity="1.000000" stroke="none" 
	d="
M85.395355,53.764908 
	C85.083687,53.886360 85.031715,53.708977 84.957565,52.858704 
	C84.902199,51.096062 84.869003,50.006310 84.835800,48.916553 
	C84.835808,48.916553 85.171677,48.769890 85.354248,48.754311 
	C85.576233,50.314507 85.615639,51.890289 85.395355,53.764908 
z"/>
<path fill="#92DD6B" opacity="1.000000" stroke="none" 
	d="
M24.116745,36.407852 
	C37.082027,35.984333 49.999638,35.976093 63.374969,35.956863 
	C64.208054,37.703873 64.583412,39.461864 64.475365,41.607262 
	C50.715477,41.661484 37.438999,41.328297 24.162521,40.995110 
	C24.131371,39.604450 24.100220,38.213795 24.116745,36.407852 
z"/>
<path fill="#E13165" opacity="1.000000" stroke="none" 
	d="
M84.671494,48.600777 
	C84.869003,50.006310 84.902199,51.096062 84.882950,52.591675 
	C78.579620,52.654404 72.328743,52.311275 65.537979,51.986954 
	C64.998093,52.005764 64.832497,52.060833 64.895386,51.657936 
	C64.916222,50.171246 64.874168,49.087460 64.893845,47.630924 
	C64.914597,46.506222 64.873611,45.754261 64.900223,44.670067 
	C65.033798,43.891216 65.099762,43.444603 65.165726,42.997993 
	C71.157051,43.304501 77.148376,43.611012 83.554367,43.961555 
	C84.148422,45.432060 84.327805,46.858532 84.671494,48.600777 
z"/>
<path fill="#8EDC70" opacity="1.000000" stroke="none" 
	d="
M65.082428,42.751358 
	C65.099762,43.444603 65.033798,43.891216 64.442467,44.669632 
	C50.665909,44.999603 37.414707,44.997768 24.163507,44.995934 
	C24.133030,43.928131 24.102552,42.860332 24.117298,41.393822 
	C37.438999,41.328297 50.715477,41.661484 64.412827,42.002861 
	C64.888840,42.175610 64.943985,42.340168 65.082428,42.751358 
z"/>
<path fill="#77D88D" opacity="1.000000" stroke="none" 
	d="
M64.833511,64.004387 
	C64.901558,65.395103 64.969604,66.785828 65.102371,68.589897 
	C65.102486,69.446625 65.037895,69.890007 64.446426,70.662918 
	C54.959412,70.956726 45.999287,70.920990 36.722519,70.614731 
	C32.291859,70.189018 28.177839,70.033821 24.063822,69.878616 
	C24.066919,68.197945 24.070017,66.517265 24.571972,64.418007 
	C38.325058,64.001076 51.579285,64.002731 64.833511,64.004387 
z"/>
<path fill="#7DD986" opacity="1.000000" stroke="none" 
	d="
M64.898239,63.590565 
	C51.579285,64.002731 38.325058,64.001076 24.615154,63.999207 
	C24.131233,62.283131 24.102991,60.567276 24.573311,58.424988 
	C38.325672,58.001030 51.579468,58.003502 64.833267,58.005974 
	C64.888031,58.171608 64.942795,58.337238 65.081444,58.750713 
	C65.097878,60.391289 65.030418,61.784016 64.898239,63.590565 
z"/>
<path fill="#83DA7E" opacity="1.000000" stroke="none" 
	d="
M64.897293,57.576736 
	C51.579468,58.003502 38.325672,58.001030 24.616230,57.997818 
	C24.131704,56.281944 24.102821,54.566803 24.572964,52.425392 
	C38.325493,52.019691 51.578995,52.040264 64.832497,52.060833 
	C64.832497,52.060833 64.998093,52.005764 65.080322,51.976570 
	C65.095482,53.680748 65.028404,55.414124 64.897293,57.576736 
z"/>
<path fill="#87DB79" opacity="1.000000" stroke="none" 
	d="
M64.895386,51.657936 
	C51.578995,52.040264 38.325493,52.019691 24.616226,51.998425 
	C24.132967,50.930130 24.105474,49.862526 24.576218,48.396767 
	C38.327007,48.000290 51.579559,48.001980 64.832115,48.003670 
	C64.874168,49.087460 64.916222,50.171246 64.895386,51.657936 
z"/>
<path fill="#8BDC74" opacity="1.000000" stroke="none" 
	d="
M64.893845,47.630924 
	C51.579559,48.001980 38.327007,48.000290 24.618793,47.997967 
	C24.135027,47.246281 24.106918,46.495232 24.121159,45.370056 
	C37.414707,44.997768 50.665909,44.999603 64.374870,45.001869 
	C64.873611,45.754261 64.914597,46.506222 64.893845,47.630924 
z"/>
<path fill="#31766F" opacity="1.000000" stroke="none" 
	d="
M23.868790,70.039558 
	C28.177839,70.033821 32.291859,70.189018 36.712082,70.949768 
	C37.011616,71.778664 37.004948,72.001991 36.547379,72.344131 
	C31.792309,72.487228 27.488144,72.511513 23.183979,72.535797 
	C23.150682,72.269577 23.117388,72.003342 23.034554,71.337166 
	C23.214596,70.691643 23.444176,70.446068 23.868790,70.039558 
z"/>
<path fill="#D4BDEA" opacity="1.000000" stroke="none" 
	d="
M22.953918,72.715591 
	C27.488144,72.511513 31.792309,72.487228 36.983040,72.460159 
	C40.828354,72.478203 43.787094,72.499031 46.749199,72.770233 
	C46.858009,73.337242 46.963459,73.653893 46.600883,73.977753 
	C43.208164,73.996986 40.234844,73.698051 37.378159,74.144844 
	C35.818020,74.388855 34.455353,75.895462 33.003635,76.832680 
	C29.616322,76.886780 26.207537,77.177513 22.852751,76.873116 
	C21.592466,76.758766 20.457546,75.262756 19.770634,74.078239 
	C20.538176,73.601440 20.780394,73.416634 21.002445,73.205414 
	C21.576250,73.102066 22.150055,72.998718 22.953918,72.715591 
z"/>
<path fill="#D7C2EA" opacity="1.000000" stroke="none" 
	d="
M33.444038,76.896759 
	C34.455353,75.895462 35.818020,74.388855 37.378159,74.144844 
	C40.234844,73.698051 43.208164,73.996986 46.925323,73.995987 
	C48.147381,74.060349 48.576973,74.113693 49.005577,74.500290 
	C49.004135,75.500046 49.003681,76.166542 49.003227,76.833046 
	C46.629467,76.900414 44.255707,76.967781 41.441280,77.100403 
	C38.628555,77.097382 36.256500,77.029114 33.444038,76.896759 
z"/>
<path fill="#C7B1DA" opacity="1.000000" stroke="none" 
	d="
M20.746056,73.184387 
	C20.780394,73.416634 20.538176,73.601440 20.066818,73.852783 
	C20.068451,73.684952 20.279058,73.424156 20.746056,73.184387 
z"/>
<path fill="#D9C7EB" opacity="1.000000" stroke="none" 
	d="
M49.465477,76.897873 
	C49.003681,76.166542 49.004135,75.500046 49.469257,74.449898 
	C54.900982,74.042625 59.868031,74.018997 64.835083,73.995369 
	C64.877853,74.747536 64.920616,75.499702 64.897446,76.624153 
	C59.863579,76.985191 54.895653,76.973938 49.465477,76.897873 
z"/>
<path fill="#828CA5" opacity="1.000000" stroke="none" 
	d="
M64.884277,73.662674 
	C59.868031,74.018997 54.900982,74.042625 49.470245,74.116653 
	C48.576973,74.113693 48.147381,74.060349 47.393353,73.988770 
	C46.963459,73.653893 46.858009,73.337242 47.217148,72.623062 
	C53.399052,72.147575 59.116360,72.069618 64.833672,71.991661 
	C64.866936,72.437767 64.900208,72.883881 64.884277,73.662674 
z"/>
<path fill="#2E7372" opacity="1.000000" stroke="none" 
	d="
M64.877617,71.741890 
	C59.116360,72.069618 53.399052,72.147575 47.213791,72.372696 
	C43.787094,72.499031 40.828354,72.478203 37.433945,72.341354 
	C37.004948,72.001991 37.011616,71.778664 37.028725,71.220291 
	C45.999287,70.920990 54.959412,70.956726 64.377457,70.992378 
	C64.864105,71.158905 64.892838,71.325516 64.877617,71.741890 
z"/>
</svg>